<?xml version="1.0" encoding="UTF-8" standalone="no"?>
<!DOCTYPE svg PUBLIC "-//W3C//DTD SVG 1.1//EN" "http://www.w3.org/Graphics/SVG/1.1/DTD/svg11.dtd">
<svg width="90" height="40" viewBox="0 0 90 40" version="1.1" xmlns="http://www.w3.org/2000/svg" xmlns:xlink="http://www.w3.org/1999/xlink" xml:space="preserve" xmlns:serif="http://www.serif.com/" style="fill-rule:evenodd;clip-rule:evenodd;stroke-linejoin:round;stroke-miterlimit:2;">
    <g transform="matrix(0.95,0,0,0.95,-13.5,-407.5)">
        <path d="M44.672,444.672C44.69,452.062 36.399,464.454 30,470C23.601,464.454 15.31,452.062 15.328,444.672C15.328,436.569 21.897,430 30,430C38.103,430 44.672,436.569 44.672,444.672ZM30,455.356C35.9,455.356 40.684,450.573 40.684,444.672C40.684,438.772 35.9,433.989 30,433.989C24.1,433.989 19.316,438.772 19.316,444.672C19.316,450.573 24.1,455.356 30,455.356Z" style="fill:rgb(0,94,165);"/>
    </g>
    <g transform="matrix(0.95,0,0,0.95,16.5,-407.5)">
        <path d="M44.672,444.672C44.69,452.062 36.399,464.454 30,470C23.601,464.454 15.31,452.062 15.328,444.672C15.328,436.569 21.897,430 30,430C38.103,430 44.672,436.569 44.672,444.672ZM30,455.356C35.9,455.356 40.684,450.573 40.684,444.672C40.684,438.772 35.9,433.989 30,433.989C24.1,433.989 19.316,438.772 19.316,444.672C19.316,450.573 24.1,455.356 30,455.356Z" style="fill:rgb(0,48,120);"/>
    </g>
    <g transform="matrix(0.95,0,0,0.95,46.5,-407.5)">
        <path d="M44.672,444.672C44.69,452.062 36.399,464.454 30,470C23.601,464.454 15.31,452.062 15.328,444.672C15.328,436.569 21.897,430 30,430C38.103,430 44.672,436.569 44.672,444.672ZM30,455.356C35.9,455.356 40.684,450.573 40.684,444.672C40.684,438.772 35.9,433.989 30,433.989C24.1,433.989 19.316,438.772 19.316,444.672C19.316,450.573 24.1,455.356 30,455.356Z" style="fill:rgb(11,12,12);"/>
    </g>
</svg>
