<?xml version="1.0" encoding="UTF-8" standalone="no"?>
<!DOCTYPE svg PUBLIC "-//W3C//DTD SVG 1.1//EN" "http://www.w3.org/Graphics/SVG/1.1/DTD/svg11.dtd">
<svg width="60" height="30" viewBox="0 0 60 30" version="1.1" xmlns="http://www.w3.org/2000/svg" xmlns:xlink="http://www.w3.org/1999/xlink" xml:space="preserve" xmlns:serif="http://www.serif.com/" style="fill-rule:evenodd;clip-rule:evenodd;stroke-linejoin:round;stroke-miterlimit:2;">
    <g transform="matrix(-1.11734,-1.36835e-16,1.32593e-16,-1.0827,61.1734,120.589)">
        <rect x="10" y="65.197" width="44.749" height="46.181" style="fill:none;"/>
    </g>
    <g transform="matrix(-1.11734,-1.36835e-16,1.32593e-16,-1.0827,111.173,120.589)">
        <rect x="10" y="65.197" width="44.749" height="46.181" style="fill:none;"/>
    </g>
    <g transform="matrix(0.833333,0,0,0.833333,-10.2837,-210.031)">
        <path d="M34.548,278.79C32.369,280.189 29.779,281 27,281C19.273,281 13,274.727 13,267C13,259.273 19.273,253 27,253C34.727,253 41,259.273 41,267C41,269.779 40.189,272.369 38.79,274.548L47.023,282.78L42.78,287.023L34.548,278.79ZM27,256.5C32.795,256.5 37.5,261.205 37.5,267C37.5,272.795 32.795,277.5 27,277.5C21.205,277.5 16.5,272.795 16.5,267C16.5,261.205 21.205,256.5 27,256.5Z" style="fill:white;"/>
    </g>
    <g transform="matrix(0.83278,0,0,0.83278,19.7928,-209.881)">
        <path d="M34.548,278.79C32.369,280.189 29.779,281 27,281C19.273,281 13,274.727 13,267C13,259.273 19.273,253 27,253C34.727,253 41,259.273 41,267C41,269.779 40.189,272.369 38.79,274.548L47.023,282.78L42.78,287.023L34.548,278.79ZM27,256.5C32.795,256.5 37.5,261.205 37.5,267C37.5,272.795 32.795,277.5 27,277.5C21.205,277.5 16.5,272.795 16.5,267C16.5,261.205 21.205,256.5 27,256.5Z" style="fill:rgb(11,12,12);"/>
    </g>
</svg>
