<?xml version="1.0" encoding="UTF-8" standalone="no"?>
<!DOCTYPE svg PUBLIC "-//W3C//DTD SVG 1.1//EN" "http://www.w3.org/Graphics/SVG/1.1/DTD/svg11.dtd">
<svg width="100%" height="100%" viewBox="0 0 200 500" version="1.1" xmlns="http://www.w3.org/2000/svg" xmlns:xlink="http://www.w3.org/1999/xlink" xml:space="preserve" xmlns:serif="http://www.serif.com/" style="fill-rule:evenodd;clip-rule:evenodd;stroke-linejoin:round;stroke-miterlimit:2;">
    <g id="Background">
    </g>
    <g id="Frames" transform="matrix(1,0,0,1,100,0)">
        <g transform="matrix(1.91944,0,0,1.91944,-395.325,-80.6163)">
            <rect x="205.959" y="42" width="52.099" height="52.099" style="fill:none;"/>
        </g>
        <g transform="matrix(1.91944,0,0,1.91944,-495.325,-80.6163)">
            <rect x="205.959" y="42" width="52.099" height="52.099" style="fill:none;"/>
        </g>
        <g transform="matrix(1.91944,0,0,1.91944,-495.325,19.3837)">
            <rect x="205.959" y="42" width="52.099" height="52.099" style="fill:none;"/>
        </g>
        <g transform="matrix(1.91944,0,0,1.91944,-495.325,119.384)">
            <rect x="205.959" y="42" width="52.099" height="52.099" style="fill:none;"/>
        </g>
        <g transform="matrix(1.91944,0,0,1.91944,-495.325,219.384)">
            <rect x="205.959" y="42" width="52.099" height="52.099" style="fill:none;"/>
        </g>
        <g transform="matrix(1.91944,0,0,1.91944,-495.325,319.384)">
            <rect x="205.959" y="42" width="52.099" height="52.099" style="fill:none;"/>
        </g>
        <g transform="matrix(1.91944,0,0,1.91944,-395.325,219.384)">
            <rect x="205.959" y="42" width="52.099" height="52.099" style="fill:none;"/>
        </g>
        <g transform="matrix(1.91944,0,0,1.91944,-395.325,19.3837)">
            <rect x="205.959" y="42" width="52.099" height="52.099" style="fill:none;"/>
        </g>
        <g transform="matrix(1.91944,0,0,1.91944,-395.325,119.384)">
            <rect x="205.959" y="42" width="52.099" height="52.099" style="fill:none;"/>
        </g>
        <g transform="matrix(1.91944,0,0,1.91944,-395.325,319.384)">
            <rect x="205.959" y="42" width="52.099" height="52.099" style="fill:none;"/>
        </g>
    </g>
    <g id="Symbols" transform="matrix(1,0,0,1,380,0)">
        <g transform="matrix(1.2,0,0,1.2,-378,-1739.46)">
            <g transform="matrix(0.605633,0,0,0.605633,-45.6165,1209.54)">
                <path d="M141.496,822.11C143.869,822.172 146.124,823.515 147.305,825.577C165.189,858.083 182.787,890.747 200.141,923.539C202.215,927.628 199.244,933.339 194.217,933.461C158.993,933.745 123.766,933.745 88.541,933.461C83.947,933.35 80.363,927.985 82.618,923.538C99.98,890.751 117.57,858.083 135.454,825.577C136.689,823.422 138.843,822.09 141.496,822.11Z" style="fill:rgb(111,119,123);"/>
            </g>
            <g transform="matrix(0.605633,0,0,0.605633,-45.6165,1209.54)">
                <path d="M141.014,832.601C124.294,863.051 107.82,893.638 91.541,924.331L91.068,925.225C124.329,925.483 157.592,925.474 190.853,925.231L191.692,925.225C175.277,894.224 158.629,863.348 141.745,832.601C141.745,832.601 141.821,831.132 141.014,832.601Z" style="fill:white;"/>
            </g>
            <g transform="matrix(0.264604,0,0,0.264604,2.38136,1705.68)">
                <path d="M181.434,169.357L193.843,169.357L141.214,109.168L120.936,132.488L120.936,123.065L108.896,123.065L108.896,146.333L88.877,169.357L101.06,169.357L101.06,214.705L181.434,214.705L181.434,169.357Z" style="fill:rgb(111,119,123);"/>
            </g>
        </g>
        <g transform="matrix(1.2,0,0,1.2,-378,-1598)">
            <g transform="matrix(0.605633,0,0,0.605633,-45.6165,1008.32)">
                <path d="M141.496,822.11C143.869,822.172 146.124,823.515 147.305,825.577C165.189,858.083 182.787,890.747 200.141,923.539C202.215,927.628 199.244,933.339 194.217,933.461C158.993,933.745 123.766,933.745 88.541,933.461C83.947,933.35 80.363,927.985 82.618,923.538C99.98,890.751 117.57,858.083 135.454,825.577C136.689,823.422 138.843,822.09 141.496,822.11Z" style="fill:rgb(241,135,0);"/>
            </g>
            <g transform="matrix(0.605633,0,0,0.605633,-45.6165,1008.32)">
                <path d="M141.014,832.601C124.294,863.051 107.82,893.638 91.541,924.331L91.068,925.225C124.329,925.483 157.592,925.474 190.853,925.231L191.692,925.225C175.277,894.224 158.629,863.348 141.745,832.601C141.745,832.601 141.821,831.132 141.014,832.601Z" style="fill:white;"/>
            </g>
            <g transform="matrix(0.833333,0,0,0.833333,-1.83333,1290.2)">
                <path d="M78.669,325.292C79.716,327.258 80.762,329.224 81.807,331.191L81.613,331.192C60.589,331.323 39.597,331.328 18.614,331.192L18.858,330.733C19.822,328.919 20.788,327.105 21.754,325.292L78.669,325.292Z" style="fill:rgb(0,164,205);"/>
            </g>
            <g transform="matrix(0.264604,0,0,0.264604,2.38136,1501.97)">
                <path d="M181.434,169.357L193.843,169.357L141.214,109.168L120.936,132.488L120.936,123.065L108.896,123.065L108.896,146.333L88.877,169.357L101.06,169.357L101.06,214.705L181.434,214.705L181.434,169.357Z" style="fill:rgb(24,28,27);"/>
            </g>
        </g>
        <g transform="matrix(1.2,0,0,1.2,-378,-1578)">
            <g transform="matrix(0.605633,0,0,0.605633,-45.6165,908.32)">
                <path d="M141.496,822.11C143.869,822.172 146.124,823.515 147.305,825.577C165.189,858.083 182.787,890.747 200.141,923.539C202.215,927.628 199.244,933.339 194.217,933.461C158.993,933.745 123.766,933.745 88.541,933.461C83.947,933.35 80.363,927.985 82.618,923.538C99.98,890.751 117.57,858.083 135.454,825.577C136.689,823.422 138.843,822.09 141.496,822.11Z" style="fill:rgb(227,0,15);"/>
            </g>
            <g transform="matrix(0.605633,0,0,0.605633,-45.6165,908.32)">
                <path d="M141.014,832.601C124.294,863.051 107.82,893.638 91.541,924.331L91.068,925.225C124.329,925.483 157.592,925.474 190.853,925.231L191.692,925.225C175.277,894.224 158.629,863.348 141.745,832.601C141.745,832.601 141.821,831.132 141.014,832.601Z" style="fill:white;"/>
            </g>
            <g transform="matrix(0.833333,0,0,0.833333,-1.83333,1273.54)">
                <path d="M75.468,219.292C77.586,223.255 79.699,227.221 81.807,231.191L81.613,231.192C60.589,231.323 39.597,231.328 18.614,231.192L18.858,230.733C20.886,226.918 22.919,223.104 24.957,219.292L75.468,219.292Z" style="fill:rgb(0,164,205);"/>
            </g>
            <g transform="matrix(0.264604,0,0,0.264604,2.38136,1401.97)">
                <path d="M181.434,169.357L193.843,169.357L141.214,109.168L120.936,132.488L120.936,123.065L108.896,123.065L108.896,146.333L88.877,169.357L101.06,169.357L101.06,195.809L181.434,195.809L181.434,169.357Z" style="fill:rgb(24,28,27);"/>
            </g>
        </g>
        <g transform="matrix(1.2,0,0,1.2,-378,-1558)">
            <g transform="matrix(0.605633,0,0,0.605633,-45.6165,808.32)">
                <path d="M141.496,822.11C143.869,822.172 146.124,823.515 147.305,825.577C165.189,858.083 182.787,890.747 200.141,923.539C202.215,927.628 199.244,933.339 194.217,933.461C158.993,933.745 123.766,933.745 88.541,933.461C83.947,933.35 80.363,927.985 82.618,923.538C99.98,890.751 117.57,858.083 135.454,825.577C136.689,823.422 138.843,822.09 141.496,822.11Z" style="fill:rgb(227,0,15);"/>
            </g>
            <g transform="matrix(0.605633,0,0,0.605633,-45.6165,808.32)">
                <path d="M141.014,832.601C124.294,863.051 107.82,893.638 91.541,924.331L91.068,925.225C124.329,925.483 157.592,925.474 190.853,925.231L191.692,925.225C175.277,894.224 158.629,863.348 141.745,832.601C141.745,832.601 141.821,831.132 141.014,832.601Z" style="fill:white;"/>
            </g>
            <g transform="matrix(0.833333,0,0,0.833333,-1.83333,1256.87)">
                <path d="M72.257,113.292C75.451,119.251 78.635,125.217 81.807,131.191L81.613,131.192C60.589,131.323 39.597,131.328 18.614,131.192L18.858,130.733C21.951,124.915 25.054,119.102 28.168,113.292L72.257,113.292Z" style="fill:rgb(0,164,205);"/>
            </g>
            <g transform="matrix(0.264604,0,0,0.264604,2.38136,1301.97)">
                <path d="M181.434,169.357L193.843,169.357L141.214,109.168L120.936,132.488L120.936,123.065L108.896,123.065L108.896,146.333L88.877,169.357L101.06,169.357L101.06,176.912L181.434,176.912L181.434,169.357Z" style="fill:rgb(227,0,15);"/>
            </g>
        </g>
        <g>
            <g transform="matrix(0.72676,0,0,0.72676,-332.774,-288.014)">
                <path d="M141.844,816.615C146.039,816.831 149.981,819.246 152.094,822.863C170.058,855.537 187.65,888.187 205.039,921.027C205.492,921.941 205.514,922.057 205.68,922.544C205.976,923.411 206.169,924.313 206.257,925.225C206.907,931.952 201.417,938.731 194.329,938.964C158.925,939.24 123.713,939.24 88.43,938.964C87.406,938.931 87.295,938.894 86.785,938.809C85.878,938.657 84.99,938.397 84.144,938.039C77.932,935.414 74.567,927.381 77.72,921.026C95.175,888.082 112.78,855.392 130.664,822.864C131.458,821.503 131.846,821.059 132.606,820.28C135.032,817.793 137.913,816.478 141.844,816.615Z" style="fill:white;"/>
            </g>
            <g transform="matrix(0.72676,0,0,0.72676,-332.774,-288.014)">
                <path d="M141.496,822.11C143.869,822.172 146.124,823.515 147.305,825.577C165.189,858.083 182.787,890.747 200.141,923.539C202.215,927.628 199.244,933.339 194.217,933.461C158.993,933.745 123.766,933.745 88.541,933.461C83.947,933.35 80.363,927.985 82.618,923.538C99.98,890.751 117.57,858.083 135.454,825.577C136.689,823.422 138.843,822.09 141.496,822.11Z" style="fill:rgb(111,119,123);"/>
            </g>
            <g transform="matrix(0.72676,0,0,0.72676,-332.774,-288.014)">
                <path d="M140.254,831.423C140.477,831.009 140.909,830.751 141.379,830.751C141.849,830.751 142.282,831.009 142.505,831.423C149.427,844.266 186.15,912.404 192.749,924.648C192.963,925.044 192.952,925.523 192.721,925.91C192.491,926.296 192.074,926.533 191.624,926.533C178.099,926.533 104.66,926.533 91.135,926.533C90.685,926.533 90.268,926.296 90.037,925.91C89.807,925.523 89.796,925.044 90.01,924.648C96.608,912.404 133.332,844.266 140.254,831.423Z" style="fill:white;"/>
            </g>
            <g transform="matrix(1,0,0,1,-280.034,100.003)">
                <path d="M43.27,246.793L43.27,249.785L48.563,243.699C48.873,243.342 49.324,243.136 49.797,243.137C50.27,243.138 50.721,243.345 51.031,243.702L66.35,261.411L66.351,261.412C66.941,262.095 66.866,263.125 66.183,263.717C65.5,264.307 64.469,264.231 63.879,263.549L62.48,261.932L62.48,271.248C62.001,271.287 61.765,271.415 61.344,271.675C60.874,271.968 60.255,272.541 59.245,273.006C58.574,273.31 57.738,273.516 56.801,273.511C56.777,273.513 56.756,273.513 56.733,273.513C55.365,273.513 54.243,273.011 53.504,272.515C52.738,272.004 52.279,271.609 51.875,271.435C51.601,271.314 51.343,271.239 50.885,271.236C50.235,271.251 49.993,271.376 49.509,271.675C49.038,271.967 48.421,272.54 47.411,273.005C46.74,273.31 45.906,273.516 44.967,273.512C43.599,273.523 42.474,273.033 41.701,272.541C40.921,272.045 40.404,271.61 40.033,271.437C39.782,271.317 39.623,271.271 39.356,271.266C38.843,271.244 37.963,271.606 36.959,272.157L36.959,262.023L35.557,263.637C35.233,264.008 34.779,264.198 34.322,264.198C33.942,264.198 33.561,264.066 33.252,263.797C32.571,263.205 32.499,262.173 33.091,261.492L39.447,254.181L39.447,246.793L43.27,246.793Z" style="fill:rgb(111,119,123);"/>
            </g>
            <g transform="matrix(0.317525,0,0,0.317525,-275.164,307.72)">
                <rect x="158.31" y="171.381" width="15.393" height="16.934" style="fill:white;"/>
            </g>
            <g transform="matrix(1,0,0,1,-280.034,100.003)">
                <path d="M83.243,282.416L16.757,282.416L20.351,275.782L21.405,275.782C22.12,276.392 23.002,277.081 23.928,277.676C24.464,278.019 25.013,278.332 25.587,278.577C26.163,278.819 26.757,279.017 27.49,279.025C29.369,278.978 30.739,278.075 32.058,277.407C33.36,276.694 34.545,276.179 35.348,276.203C35.753,276.207 36.028,276.287 36.386,276.46C36.918,276.712 37.575,277.265 38.525,277.868C39.467,278.463 40.791,279.037 42.429,279.025C43.557,279.029 44.544,278.785 45.344,278.424C46.547,277.875 47.308,277.176 47.934,276.783C48.576,276.383 48.987,276.18 49.897,276.164C50.533,276.168 50.927,276.278 51.319,276.453C51.902,276.705 52.498,277.222 53.429,277.837C54.345,278.447 55.684,279.042 57.363,279.025C58.493,279.028 59.479,278.785 60.279,278.424C61.484,277.875 62.246,277.176 62.872,276.783C63.515,276.382 63.926,276.179 64.834,276.163C65.449,276.156 66.176,276.415 66.728,276.72C67.003,276.869 67.233,277.022 67.383,277.131C67.46,277.185 67.516,277.229 67.549,277.255C67.566,277.268 67.576,277.278 67.582,277.282L67.696,277.373C68.629,278.066 70.12,279.025 72.217,279.025L72.303,279.025C74.203,278.99 75.824,278.111 77.222,277.237C77.914,276.791 78.531,276.328 79.036,275.912C79.089,275.868 79.14,275.825 79.191,275.782L79.661,275.782L83.243,282.416Z" style="fill:rgb(0,164,205);"/>
            </g>
        </g>
        <g>
            <g transform="matrix(0.72676,0,0,0.72676,-332.774,-188.014)">
                <path d="M141.844,816.615C146.039,816.831 149.981,819.246 152.094,822.863C170.058,855.537 187.65,888.187 205.039,921.027C205.492,921.941 205.514,922.057 205.68,922.544C205.976,923.411 206.169,924.313 206.257,925.225C206.907,931.952 201.417,938.731 194.329,938.964C158.925,939.24 123.713,939.24 88.43,938.964C87.406,938.931 87.295,938.894 86.785,938.809C85.878,938.657 84.99,938.397 84.144,938.039C77.932,935.414 74.567,927.381 77.72,921.026C95.175,888.082 112.78,855.392 130.664,822.864C131.458,821.503 131.846,821.059 132.606,820.28C135.032,817.793 137.913,816.478 141.844,816.615Z" style="fill:white;"/>
            </g>
            <g transform="matrix(0.72676,0,0,0.72676,-332.774,-188.014)">
                <path d="M141.496,822.11C143.869,822.172 146.124,823.515 147.305,825.577C165.189,858.083 182.787,890.747 200.141,923.539C202.215,927.628 199.244,933.339 194.217,933.461C158.993,933.745 123.766,933.745 88.541,933.461C83.947,933.35 80.363,927.985 82.618,923.538C99.98,890.751 117.57,858.083 135.454,825.577C136.689,823.422 138.843,822.09 141.496,822.11Z" style="fill:rgb(111,119,123);"/>
            </g>
            <g transform="matrix(0.72676,0,0,0.72676,-332.774,-188.014)">
                <path d="M140.254,831.423C140.477,831.009 140.909,830.751 141.379,830.751C141.849,830.751 142.282,831.009 142.505,831.423C149.427,844.266 186.15,912.404 192.749,924.648C192.963,925.044 192.952,925.523 192.721,925.91C192.491,926.296 192.074,926.533 191.624,926.533C178.099,926.533 104.66,926.533 91.135,926.533C90.685,926.533 90.268,926.296 90.037,925.91C89.807,925.523 89.796,925.044 90.01,924.648C96.608,912.404 133.332,844.266 140.254,831.423Z" style="fill:white;"/>
            </g>
            <g transform="matrix(1,0,0,1,-280.034,201.738)">
                <path d="M43.27,246.793L43.27,249.785L48.563,243.699C48.873,243.342 49.324,243.136 49.797,243.137C50.27,243.138 50.721,243.345 51.031,243.702L66.35,261.411L66.351,261.412C66.941,262.095 66.866,263.125 66.183,263.717C65.5,264.307 64.469,264.231 63.879,263.549L62.48,261.932L62.48,271.248C62.001,271.287 61.765,271.415 61.344,271.675C60.874,271.968 60.255,272.541 59.245,273.006C58.574,273.31 57.738,273.516 56.801,273.511C56.777,273.513 56.756,273.513 56.733,273.513C55.365,273.513 54.243,273.011 53.504,272.515C52.738,272.004 52.279,271.609 51.875,271.435C51.601,271.314 51.343,271.239 50.885,271.236C50.235,271.251 49.993,271.376 49.509,271.675C49.038,271.967 48.421,272.54 47.411,273.005C46.74,273.31 45.906,273.516 44.967,273.512C43.599,273.523 42.474,273.033 41.701,272.541C40.921,272.045 40.404,271.61 40.033,271.437C39.782,271.317 39.623,271.271 39.356,271.266C38.843,271.244 37.963,271.606 36.959,272.157L36.959,262.023L35.557,263.637C35.233,264.008 34.779,264.198 34.322,264.198C33.942,264.198 33.561,264.066 33.252,263.797C32.571,263.205 32.499,262.173 33.091,261.492L39.447,254.181L39.447,246.793L43.27,246.793Z" style="fill:rgb(111,119,123);"/>
            </g>
            <g transform="matrix(0.317525,0,0,0.317525,-275.164,409.455)">
                <rect x="158.31" y="171.381" width="15.393" height="16.934" style="fill:white;"/>
            </g>
        </g>
        <g>
            <g transform="matrix(0.72676,0,0,0.72676,-332.74,-388.016)">
                <path d="M141.844,816.615C146.039,816.831 149.981,819.246 152.094,822.863C170.058,855.537 187.65,888.187 205.039,921.027C205.492,921.941 205.514,922.057 205.68,922.544C205.976,923.411 206.169,924.313 206.257,925.225C206.907,931.952 201.417,938.731 194.329,938.964C158.925,939.24 123.713,939.24 88.43,938.964C87.406,938.931 87.295,938.894 86.785,938.809C85.878,938.657 84.99,938.397 84.144,938.039C77.932,935.414 74.567,927.381 77.72,921.026C95.175,888.082 112.78,855.392 130.664,822.864C131.458,821.503 131.846,821.059 132.606,820.28C135.032,817.793 137.913,816.478 141.844,816.615Z" style="fill:white;"/>
            </g>
            <g transform="matrix(0.72676,0,0,0.72676,-332.74,-388.016)">
                <path d="M141.496,822.11C143.869,822.172 146.124,823.515 147.305,825.577C165.189,858.083 182.787,890.747 200.141,923.539C202.215,927.628 199.244,933.339 194.217,933.461C158.993,933.745 123.766,933.745 88.541,933.461C83.947,933.35 80.363,927.985 82.618,923.538C99.98,890.751 117.57,858.083 135.454,825.577C136.689,823.422 138.843,822.09 141.496,822.11Z" style="fill:rgb(241,135,0);"/>
            </g>
            <g transform="matrix(0.72676,0,0,0.72676,-332.74,-388.016)">
                <path d="M140.254,831.423C140.477,831.009 140.909,830.751 141.379,830.751C141.849,830.751 142.282,831.009 142.505,831.423C149.427,844.266 186.15,912.404 192.749,924.648C192.963,925.044 192.952,925.523 192.721,925.91C192.491,926.296 192.074,926.533 191.624,926.533C178.099,926.533 104.66,926.533 91.135,926.533C90.685,926.533 90.268,926.296 90.037,925.91C89.807,925.523 89.796,925.044 90.01,924.648C96.608,912.404 133.332,844.266 140.254,831.423Z" style="fill:white;"/>
            </g>
            <g transform="matrix(1,0,0,1,-280,0)">
                <path d="M43.27,246.793L43.27,249.785L48.563,243.699C48.873,243.342 49.324,243.136 49.797,243.137C50.27,243.138 50.721,243.345 51.031,243.702L66.35,261.411L66.351,261.412C66.941,262.095 66.866,263.125 66.183,263.717C65.5,264.307 64.469,264.231 63.879,263.549L62.48,261.932L62.48,271.248C62.001,271.287 61.765,271.415 61.344,271.675C60.874,271.968 60.255,272.541 59.245,273.006C58.574,273.31 57.738,273.516 56.801,273.511C56.777,273.513 56.756,273.513 56.733,273.513C55.365,273.513 54.243,273.011 53.504,272.515C52.738,272.004 52.279,271.609 51.875,271.435C51.601,271.314 51.343,271.239 50.885,271.236C50.235,271.251 49.993,271.376 49.509,271.675C49.038,271.967 48.421,272.54 47.411,273.005C46.74,273.31 45.906,273.516 44.967,273.512C43.599,273.523 42.474,273.033 41.701,272.541C40.921,272.045 40.404,271.61 40.033,271.437C39.782,271.317 39.623,271.271 39.356,271.266C38.843,271.244 37.963,271.606 36.959,272.157L36.959,262.023L35.557,263.637C35.233,264.008 34.779,264.198 34.322,264.198C33.942,264.198 33.561,264.066 33.252,263.797C32.571,263.205 32.499,262.173 33.091,261.492L39.447,254.181L39.447,246.793L43.27,246.793Z" style="fill:rgb(24,28,27);"/>
            </g>
            <g transform="matrix(0.317525,0,0,0.317525,-275.13,207.717)">
                <rect x="158.31" y="171.381" width="15.393" height="16.934" style="fill:white;"/>
            </g>
            <g transform="matrix(1,0,0,1,-280,0)">
                <path d="M83.243,282.416L16.757,282.416L20.351,275.782L21.405,275.782C22.12,276.392 23.002,277.081 23.928,277.676C24.464,278.019 25.013,278.332 25.587,278.577C26.163,278.819 26.757,279.017 27.49,279.025C29.369,278.978 30.739,278.075 32.058,277.407C33.36,276.694 34.545,276.179 35.348,276.203C35.753,276.207 36.028,276.287 36.386,276.46C36.918,276.712 37.575,277.265 38.525,277.868C39.467,278.463 40.791,279.037 42.429,279.025C43.557,279.029 44.544,278.785 45.344,278.424C46.547,277.875 47.308,277.176 47.934,276.783C48.576,276.383 48.987,276.18 49.897,276.164C50.533,276.168 50.927,276.278 51.319,276.453C51.902,276.705 52.498,277.222 53.429,277.837C54.345,278.447 55.684,279.042 57.363,279.025C58.493,279.028 59.479,278.785 60.279,278.424C61.484,277.875 62.246,277.176 62.872,276.783C63.515,276.382 63.926,276.179 64.834,276.163C65.449,276.156 66.176,276.415 66.728,276.72C67.003,276.869 67.233,277.022 67.383,277.131C67.46,277.185 67.516,277.229 67.549,277.255C67.566,277.268 67.576,277.278 67.582,277.282L67.696,277.373C68.629,278.066 70.12,279.025 72.217,279.025L72.303,279.025C74.203,278.99 75.824,278.111 77.222,277.237C77.914,276.791 78.531,276.328 79.036,275.912C79.089,275.868 79.14,275.825 79.191,275.782L79.661,275.782L83.243,282.416Z" style="fill:rgb(0,164,205);"/>
            </g>
        </g>
        <g>
            <g transform="matrix(0.72676,0,0,0.72676,-332.74,-488.016)">
                <path d="M141.844,816.615C146.035,816.831 149.955,819.203 152.094,822.863C170.058,855.537 187.65,888.187 205.039,921.027C205.492,921.94 205.514,922.057 205.68,922.545C205.997,923.472 206.195,924.44 206.274,925.416C206.813,932.107 201.418,938.73 194.33,938.964C158.923,939.24 123.713,939.24 88.428,938.964C87.411,938.93 87.295,938.894 86.786,938.809C85.879,938.657 84.991,938.397 84.144,938.039C77.898,935.4 74.568,927.379 77.72,921.026C95.175,888.082 112.78,855.392 130.664,822.864C131.457,821.505 131.846,821.059 132.606,820.28C135.032,817.793 137.916,816.479 141.844,816.615Z" style="fill:white;"/>
            </g>
            <g transform="matrix(0.72676,0,0,0.72676,-332.74,-488.016)">
                <path d="M141.496,822.11C143.869,822.172 146.124,823.515 147.305,825.577C165.189,858.083 182.787,890.747 200.141,923.539C202.215,927.628 199.244,933.339 194.217,933.461C158.993,933.745 123.766,933.745 88.541,933.461C83.947,933.35 80.363,927.985 82.618,923.538C99.98,890.751 117.57,858.083 135.454,825.577C136.689,823.422 138.843,822.09 141.496,822.11Z" style="fill:rgb(227,0,15);"/>
            </g>
            <g transform="matrix(0.72676,0,0,0.72676,-332.74,-488.016)">
                <path d="M140.254,831.423C140.477,831.009 140.909,830.751 141.379,830.751C141.849,830.751 142.282,831.009 142.505,831.423C149.427,844.266 186.15,912.404 192.749,924.648C192.963,925.044 192.952,925.523 192.721,925.91C192.491,926.296 192.074,926.533 191.624,926.533C178.099,926.533 104.66,926.533 91.135,926.533C90.685,926.533 90.268,926.296 90.037,925.91C89.807,925.523 89.796,925.044 90.01,924.648C96.608,912.404 133.332,844.266 140.254,831.423Z" style="fill:white;"/>
            </g>
            <g transform="matrix(1,0,0,1,-280,0)">
                <path d="M43.185,141.768L43.185,144.767L48.49,138.668C48.799,138.309 49.254,138.103 49.727,138.105C50.2,138.106 50.653,138.312 50.963,138.671L66.313,156.417L66.314,156.419C66.907,157.102 66.83,158.136 66.147,158.727C65.463,159.317 64.429,159.243 63.839,158.559L62.436,156.938L62.436,165.595C61.956,165.635 61.719,165.762 61.297,166.023C60.826,166.316 60.206,166.89 59.193,167.357C58.519,167.662 57.684,167.868 56.743,167.864C56.72,167.864 56.699,167.865 56.676,167.865C55.305,167.865 54.18,167.361 53.44,166.864C52.673,166.353 52.213,165.956 51.807,165.782C51.532,165.662 51.275,165.585 50.815,165.582C50.164,165.599 49.924,165.723 49.436,166.023C48.965,166.316 48.346,166.89 47.334,167.356C46.661,167.661 45.826,167.868 44.885,167.864C43.514,167.875 42.387,167.385 41.611,166.891C40.83,166.392 40.314,165.958 39.94,165.785C39.689,165.665 39.53,165.619 39.263,165.614C38.749,165.591 37.868,165.953 36.862,166.505L36.862,157.031L35.457,158.646C35.132,159.018 34.677,159.208 34.22,159.208C33.839,159.208 33.457,159.077 33.147,158.807C32.465,158.214 32.392,157.18 32.986,156.498L39.356,149.172L39.356,141.768L43.185,141.768Z" style="fill:rgb(24,28,27);"/>
            </g>
            <g transform="matrix(1,0,0,1,-280,0)">
                <path d="M20.561,175.277C20.684,175.391 20.817,175.511 20.961,175.639C21.725,176.309 22.735,177.121 23.802,177.808C24.34,178.151 24.891,178.465 25.464,178.711C26.042,178.952 26.638,179.151 27.371,179.159C29.254,179.112 30.628,178.207 31.949,177.538C33.253,176.825 34.441,176.308 35.246,176.331C35.652,176.336 35.927,176.416 36.287,176.589C36.819,176.841 37.478,177.396 38.43,177.999C39.374,178.596 40.7,179.17 42.342,179.159C43.473,179.162 44.461,178.919 45.263,178.556C46.468,178.006 47.231,177.306 47.859,176.912C48.503,176.51 48.914,176.308 49.826,176.291C50.463,176.295 50.857,176.406 51.252,176.581C51.835,176.834 52.433,177.351 53.365,177.968C54.283,178.58 55.626,179.175 57.308,179.159C58.44,179.162 59.428,178.918 60.229,178.557C61.437,178.006 62.2,177.306 62.829,176.912C63.472,176.51 63.885,176.308 64.794,176.291C65.41,176.282 66.138,176.543 66.691,176.849C66.968,176.999 67.197,177.152 67.35,177.261C67.425,177.315 67.482,177.358 67.515,177.385C67.531,177.398 67.543,177.408 67.548,177.412L67.548,177.411L67.663,177.503C68.599,178.197 70.093,179.159 72.193,179.159L72.28,179.159C74.183,179.124 75.807,178.242 77.208,177.366C77.902,176.92 78.521,176.456 79.026,176.039C79.2,175.894 79.358,175.759 79.503,175.63L83.243,182.557L16.617,182.557L20.561,175.277Z" style="fill:rgb(0,164,205);"/>
            </g>
            <g transform="matrix(1,0,0,1,-280,0)">
                <path d="M24.596,167.83C24.661,167.945 24.74,168.056 24.832,168.159C25.208,168.583 25.9,169.319 26.819,170.011C27.746,170.682 28.897,171.415 30.497,171.446C32.367,171.393 33.637,170.524 34.837,169.921C36.019,169.267 37.056,168.837 37.656,168.864C37.962,168.868 38.146,168.921 38.434,169.059C38.862,169.257 39.455,169.757 40.353,170.33C41.241,170.896 42.535,171.459 44.111,171.446C45.19,171.451 46.151,171.214 46.921,170.863C48.083,170.328 48.793,169.669 49.334,169.333C49.892,168.989 50.169,168.846 50.917,168.827C51.444,168.831 51.74,168.918 52.055,169.058C52.522,169.257 53.05,169.711 53.929,170.298C54.78,170.87 56.07,171.446 57.644,171.446C57.67,171.446 57.695,171.446 57.721,171.446C58.8,171.451 59.761,171.215 60.532,170.863C61.695,170.329 62.407,169.67 62.948,169.333C63.506,168.988 63.782,168.846 64.529,168.827C64.993,168.818 65.603,169.028 66.073,169.29C66.307,169.418 66.504,169.549 66.631,169.641C66.694,169.687 66.742,169.723 66.768,169.745C66.778,169.753 66.784,169.758 66.79,169.761C66.79,169.763 66.79,169.763 66.792,169.763L66.914,169.861C67.365,170.185 67.929,170.587 68.672,170.91C69.412,171.236 70.322,171.45 71.335,171.446C73.042,171.452 74.406,170.704 75.299,169.954C75.582,169.718 75.835,169.475 76.055,169.246L77.762,172.406C77.688,172.466 77.618,172.533 77.552,172.607L77.551,172.606C77.492,172.678 77.179,172.983 76.778,173.31C76.169,173.815 75.303,174.439 74.443,174.9C73.586,175.371 72.717,175.639 72.28,175.624C71.119,175.597 70.68,175.293 69.768,174.661C69.579,174.507 69.092,174.13 68.378,173.742C67.506,173.275 66.285,172.763 64.794,172.756C63.692,172.751 62.722,173.002 61.941,173.366C60.766,173.922 60.03,174.605 59.397,174.994C58.753,175.388 58.296,175.608 57.309,175.624C56.672,175.62 56.277,175.508 55.885,175.333C55.299,175.081 54.703,174.563 53.77,173.945C52.852,173.336 51.509,172.74 49.826,172.756C48.725,172.751 47.752,173.001 46.972,173.366C45.796,173.922 45.059,174.606 44.428,174.995C43.784,175.388 43.329,175.607 42.343,175.624C41.186,175.607 40.609,175.226 39.611,174.534C39.124,174.194 38.573,173.778 37.858,173.422C37.146,173.066 36.249,172.792 35.246,172.796C33.231,172.82 31.638,173.716 30.287,174.418C28.955,175.162 27.8,175.671 27.371,175.624C27.371,175.624 27.364,175.624 27.322,175.617C27.16,175.594 26.714,175.426 26.224,175.142C25.478,174.722 24.6,174.076 23.881,173.482C23.168,172.898 22.561,172.313 22.441,172.173C22.401,172.127 22.358,172.083 22.313,172.042L24.596,167.83Z" style="fill:rgb(0,164,205);"/>
            </g>
            <g transform="matrix(1,0,0,1,-280,0)">
                <rect x="55.078" y="157.142" width="4.898" height="5.388" style="fill:white;"/>
            </g>
        </g>
        <g>
            <g transform="matrix(0.72676,0,0,0.72676,-332.74,-588.016)">
                <path d="M141.844,816.615C146.039,816.831 149.981,819.247 152.094,822.863C170.058,855.537 187.65,888.186 205.039,921.027C205.492,921.94 205.514,922.057 205.68,922.545C205.997,923.472 206.195,924.44 206.274,925.416C206.813,932.107 201.416,938.731 194.329,938.964C159.148,939.239 123.775,939.24 88.429,938.964C87.409,938.93 87.295,938.894 86.785,938.809C85.878,938.657 84.99,938.397 84.143,938.039C77.898,935.4 74.567,927.38 77.72,921.026C95.175,888.082 112.78,855.392 130.664,822.864C131.457,821.505 131.846,821.059 132.606,820.28C135.029,817.795 137.862,816.477 141.844,816.615Z" style="fill:white;"/>
            </g>
            <g transform="matrix(0.72676,0,0,0.72676,-332.74,-588.016)">
                <path d="M141.496,822.11C143.869,822.172 146.124,823.515 147.305,825.577C165.189,858.083 182.787,890.747 200.141,923.539C202.215,927.628 199.244,933.339 194.217,933.461C158.993,933.745 123.766,933.745 88.541,933.461C83.947,933.35 80.363,927.985 82.618,923.538C99.98,890.751 117.57,858.083 135.454,825.577C136.689,823.422 138.843,822.09 141.496,822.11Z" style="fill:rgb(227,0,15);"/>
            </g>
            <g transform="matrix(0.72676,0,0,0.72676,-332.74,-588.016)">
                <path d="M140.254,831.423C140.477,831.009 140.909,830.751 141.379,830.751C141.849,830.751 142.282,831.009 142.505,831.423C149.427,844.266 186.15,912.404 192.749,924.648C192.963,925.044 192.952,925.523 192.721,925.91C192.491,926.296 192.074,926.533 191.624,926.533C178.099,926.533 104.66,926.533 91.135,926.533C90.685,926.533 90.268,926.296 90.037,925.91C89.807,925.523 89.796,925.044 90.01,924.648C96.608,912.404 133.332,844.266 140.254,831.423Z" style="fill:white;"/>
            </g>
            <g transform="matrix(1,0,0,1,-280,0)">
                <path d="M43.096,39.883L43.096,43.01L48.412,36.649C48.723,36.276 49.177,36.061 49.651,36.062C50.127,36.063 50.579,36.279 50.891,36.652L66.275,55.157L66.277,55.158C66.869,55.87 66.793,56.948 66.108,57.565C65.422,58.182 64.385,58.103 63.794,57.39L62.387,55.699L62.387,58.465C61.907,58.507 61.67,58.64 61.248,58.912C60.912,59.129 60.5,59.496 59.924,59.864L59.924,55.912L55.014,55.912L55.014,60.59C54.357,60.389 53.801,60.088 53.373,59.789C52.605,59.255 52.143,58.842 51.737,58.661C51.462,58.534 51.202,58.456 50.743,58.452C50.089,58.469 49.848,58.6 49.36,58.912C48.889,59.216 48.269,59.816 47.255,60.302C46.581,60.62 45.743,60.836 44.8,60.832C43.426,60.843 42.294,60.332 41.519,59.817C40.738,59.296 40.218,58.843 39.844,58.663C39.592,58.537 39.433,58.49 39.165,58.485C38.651,58.461 37.765,58.839 36.757,59.416L36.757,55.796L35.348,57.481C35.024,57.869 34.568,58.068 34.109,58.068C33.727,58.068 33.344,57.93 33.034,57.649C32.35,57.031 32.278,55.953 32.872,55.241L39.256,47.602L39.256,39.883L43.096,39.883Z" style="fill:rgb(227,0,15);"/>
            </g>
            <g transform="matrix(1,0,0,1,-280,0)">
                <path d="M27.928,60.406C27.941,60.422 27.954,60.438 27.967,60.454C28.296,60.839 28.899,61.507 29.703,62.136C30.511,62.745 31.516,63.411 32.913,63.439C34.546,63.391 35.655,62.602 36.704,62.054C37.736,61.461 38.641,61.07 39.165,61.093C39.432,61.098 39.592,61.145 39.844,61.271C40.217,61.452 40.736,61.905 41.519,62.426C42.295,62.94 43.425,63.451 44.8,63.439C45.743,63.443 46.581,63.229 47.254,62.91C48.269,62.425 48.889,61.825 49.361,61.52C49.848,61.207 50.089,61.078 50.743,61.061C51.204,61.064 51.462,61.143 51.737,61.27C52.144,61.45 52.604,61.864 53.373,62.397C54.116,62.916 55.242,63.44 56.615,63.44C56.638,63.44 56.662,63.44 56.684,63.439C57.626,63.443 58.465,63.229 59.138,62.91C60.153,62.425 60.776,61.826 61.246,61.52C61.734,61.206 61.976,61.078 62.627,61.061C63.034,61.052 63.566,61.244 63.976,61.482C64.179,61.597 64.352,61.716 64.463,61.8C64.519,61.842 64.56,61.875 64.582,61.893C64.591,61.901 64.598,61.907 64.6,61.91C64.602,61.91 64.602,61.91 64.602,61.911L64.711,62C65.104,62.294 65.596,62.659 66.245,62.953C66.892,63.248 67.686,63.443 68.57,63.439C70.06,63.445 71.252,62.766 72.031,62.084C72.191,61.946 72.339,61.805 72.476,61.667L73.963,64.532C73.867,64.636 73.623,64.877 73.322,65.133C72.79,65.591 72.035,66.156 71.284,66.575C70.535,67.004 69.778,67.247 69.395,67.233C68.38,67.209 67.998,66.933 67.2,66.359C67.036,66.219 66.611,65.877 65.988,65.523C65.226,65.099 64.16,64.635 62.859,64.628C61.896,64.624 61.049,64.852 60.367,65.183C59.342,65.687 58.699,66.308 58.147,66.662C57.585,67.019 57.187,67.219 56.323,67.233C55.767,67.229 55.422,67.128 55.08,66.97C54.569,66.74 54.047,66.269 53.233,65.709C52.432,65.155 51.259,64.613 49.79,64.628C48.827,64.624 47.979,64.852 47.298,65.183C46.271,65.687 45.628,66.309 45.077,66.662C44.515,67.019 44.117,67.218 43.256,67.233C42.246,67.217 41.743,66.872 40.871,66.243C40.446,65.934 39.965,65.557 39.34,65.233C38.719,64.909 37.936,64.661 37.059,64.665C35.3,64.686 33.909,65.501 32.729,66.137C31.567,66.813 30.558,67.276 30.184,67.233C30.184,67.233 30.178,67.234 30.141,67.226C30,67.206 29.609,67.053 29.182,66.795C28.531,66.414 27.765,65.827 27.136,65.288C26.611,64.84 26.153,64.393 25.959,64.187L27.928,60.406Z" style="fill:rgb(0,164,205);"/>
            </g>
            <g transform="matrix(1,0,0,1,-280,0)">
                <path d="M20.421,74.821C20.545,74.939 20.678,75.064 20.822,75.197C21.587,75.895 22.598,76.744 23.67,77.459C24.207,77.817 24.759,78.143 25.336,78.4C25.914,78.652 26.511,78.859 27.246,78.867C29.134,78.819 30.51,77.875 31.833,77.177C33.142,76.433 34.331,75.895 35.138,75.919C35.546,75.924 35.821,76.008 36.181,76.188C36.715,76.451 37.375,77.029 38.329,77.658C39.275,78.281 40.605,78.88 42.249,78.868C43.383,78.872 44.374,78.618 45.178,78.239C46.386,77.665 47.151,76.935 47.778,76.525C48.424,76.106 48.838,75.895 49.751,75.877C50.39,75.881 50.784,75.997 51.179,76.179C51.765,76.444 52.363,76.983 53.299,77.627C54.218,78.264 55.564,78.886 57.25,78.868C58.384,78.872 59.374,78.618 60.178,78.24C61.388,77.666 62.152,76.936 62.782,76.525C63.427,76.107 63.84,75.895 64.752,75.878C65.369,75.87 66.1,76.141 66.654,76.459C66.93,76.616 67.161,76.775 67.313,76.889C67.39,76.946 67.446,76.991 67.479,77.02C67.496,77.033 67.506,77.042 67.512,77.047L67.513,77.047L67.627,77.142C68.565,77.866 70.063,78.869 72.167,78.869C72.196,78.869 72.225,78.869 72.254,78.868C74.163,78.832 75.79,77.913 77.194,77C77.888,76.535 78.509,76.051 79.016,75.616C79.19,75.465 79.349,75.324 79.494,75.189L83.243,82.412L16.468,82.412L20.421,74.821Z" style="fill:rgb(0,164,205);"/>
            </g>
            <g transform="matrix(1,0,0,1,-280,0)">
                <path d="M24.465,67.057C24.53,67.177 24.609,67.292 24.701,67.4C25.078,67.842 25.771,68.609 26.693,69.332C27.622,70.03 28.775,70.794 30.38,70.828C32.252,70.772 33.526,69.866 34.729,69.237C35.912,68.556 36.952,68.106 37.554,68.134C37.861,68.139 38.044,68.194 38.334,68.338C38.762,68.546 39.358,69.066 40.257,69.663C41.147,70.254 42.444,70.841 44.022,70.827C45.103,70.832 46.066,70.585 46.839,70.219C48.003,69.661 48.716,68.974 49.258,68.624C49.818,68.264 50.095,68.116 50.844,68.096C51.372,68.101 51.67,68.191 51.985,68.336C52.454,68.545 52.983,69.018 53.864,69.63C54.716,70.226 56.01,70.828 57.586,70.828C57.613,70.828 57.637,70.828 57.663,70.828C58.745,70.832 59.708,70.586 60.482,70.22C61.646,69.663 62.36,68.976 62.902,68.624C63.461,68.264 63.738,68.116 64.486,68.096C64.953,68.087 65.563,68.307 66.034,68.58C66.269,68.713 66.465,68.849 66.593,68.946C66.658,68.993 66.704,69.031 66.729,69.053C66.74,69.062 66.748,69.068 66.751,69.071C66.752,69.072 66.752,69.073 66.753,69.073L66.755,69.073L66.877,69.175C67.328,69.512 67.895,69.932 68.639,70.269C69.382,70.609 70.293,70.831 71.308,70.828C73.019,70.833 74.386,70.054 75.281,69.271C75.566,69.025 75.819,68.772 76.039,68.533L77.748,71.825C77.674,71.888 77.603,71.958 77.538,72.035L77.537,72.035C77.477,72.109 77.164,72.428 76.762,72.769C76.15,73.296 75.284,73.946 74.421,74.426C73.564,74.918 72.691,75.198 72.254,75.181C71.089,75.154 70.649,74.837 69.737,74.177C69.548,74.016 69.058,73.624 68.342,73.218C67.47,72.732 66.246,72.198 64.752,72.191C63.646,72.186 62.674,72.448 61.892,72.827C60.714,73.407 59.975,74.12 59.342,74.525C58.696,74.936 58.24,75.165 57.25,75.181C56.611,75.177 56.215,75.061 55.822,74.879C55.236,74.615 54.637,74.075 53.703,73.431C52.782,72.794 51.436,72.173 49.751,72.191C48.645,72.186 47.672,72.447 46.89,72.827C45.712,73.407 44.972,74.12 44.34,74.525C43.695,74.936 43.239,75.163 42.249,75.181C41.091,75.163 40.514,74.767 39.512,74.045C39.025,73.691 38.472,73.257 37.755,72.886C37.044,72.513 36.144,72.228 35.138,72.233C33.119,72.257 31.521,73.194 30.169,73.924C28.833,74.699 27.676,75.23 27.246,75.181C27.246,75.181 27.238,75.182 27.196,75.174C27.035,75.15 26.586,74.976 26.096,74.68C25.349,74.242 24.469,73.567 23.749,72.948C23.033,72.339 22.425,71.729 22.305,71.583C22.264,71.536 22.222,71.491 22.178,71.449L24.465,67.057Z" style="fill:rgb(0,164,205);"/>
            </g>
        </g>
    </g>
</svg>
