<?xml version="1.0" encoding="UTF-8" standalone="no"?>
<!DOCTYPE svg PUBLIC "-//W3C//DTD SVG 1.1//EN" "http://www.w3.org/Graphics/SVG/1.1/DTD/svg11.dtd">
<svg width="100" height="100" viewBox="0 0 100 100" version="1.1" xmlns="http://www.w3.org/2000/svg" xmlns:xlink="http://www.w3.org/1999/xlink" xml:space="preserve" xmlns:serif="http://www.serif.com/" style="fill-rule:evenodd;clip-rule:evenodd;stroke-linejoin:round;stroke-miterlimit:2;">
    <g transform="matrix(1,0,0,1,280,-200)">
        <g transform="matrix(0.72676,0,0,0.72676,-332.74,-388.016)">
            <path d="M141.844,816.615C146.039,816.831 149.981,819.246 152.094,822.863C170.058,855.537 187.65,888.187 205.039,921.027C205.492,921.941 205.514,922.057 205.68,922.544C205.976,923.411 206.169,924.313 206.257,925.225C206.907,931.952 201.417,938.731 194.329,938.964C158.925,939.24 123.713,939.24 88.43,938.964C87.406,938.931 87.295,938.894 86.785,938.809C85.878,938.657 84.99,938.397 84.144,938.039C77.932,935.414 74.567,927.381 77.72,921.026C95.175,888.082 112.78,855.392 130.664,822.864C131.458,821.503 131.846,821.059 132.606,820.28C135.032,817.793 137.913,816.478 141.844,816.615Z" style="fill:white;"/>
        </g>
        <g transform="matrix(0.72676,0,0,0.72676,-332.74,-388.016)">
            <path d="M141.496,822.11C143.869,822.172 146.124,823.515 147.305,825.577C165.189,858.083 182.787,890.747 200.141,923.539C202.215,927.628 199.244,933.339 194.217,933.461C158.993,933.745 123.766,933.745 88.541,933.461C83.947,933.35 80.363,927.985 82.618,923.538C99.98,890.751 117.57,858.083 135.454,825.577C136.689,823.422 138.843,822.09 141.496,822.11Z" style="fill:rgb(241,135,0);"/>
        </g>
        <g transform="matrix(0.72676,0,0,0.72676,-332.74,-388.016)">
            <path d="M140.254,831.423C140.477,831.009 140.909,830.751 141.379,830.751C141.849,830.751 142.282,831.009 142.505,831.423C149.427,844.266 186.15,912.404 192.749,924.648C192.963,925.044 192.952,925.523 192.721,925.91C192.491,926.296 192.074,926.533 191.624,926.533C178.099,926.533 104.66,926.533 91.135,926.533C90.685,926.533 90.268,926.296 90.037,925.91C89.807,925.523 89.796,925.044 90.01,924.648C96.608,912.404 133.332,844.266 140.254,831.423Z" style="fill:white;"/>
        </g>
        <g transform="matrix(1,0,0,1,-280,0)">
            <path d="M43.27,246.793L43.27,249.785L48.563,243.699C48.873,243.342 49.324,243.136 49.797,243.137C50.27,243.138 50.721,243.345 51.031,243.702L66.35,261.411L66.351,261.412C66.941,262.095 66.866,263.125 66.183,263.717C65.5,264.307 64.469,264.231 63.879,263.549L62.48,261.932L62.48,271.248C62.001,271.287 61.765,271.415 61.344,271.675C60.874,271.968 60.255,272.541 59.245,273.006C58.574,273.31 57.738,273.516 56.801,273.511C56.777,273.513 56.756,273.513 56.733,273.513C55.365,273.513 54.243,273.011 53.504,272.515C52.738,272.004 52.279,271.609 51.875,271.435C51.601,271.314 51.343,271.239 50.885,271.236C50.235,271.251 49.993,271.376 49.509,271.675C49.038,271.967 48.421,272.54 47.411,273.005C46.74,273.31 45.906,273.516 44.967,273.512C43.599,273.523 42.474,273.033 41.701,272.541C40.921,272.045 40.404,271.61 40.033,271.437C39.782,271.317 39.623,271.271 39.356,271.266C38.843,271.244 37.963,271.606 36.959,272.157L36.959,262.023L35.557,263.637C35.233,264.008 34.779,264.198 34.322,264.198C33.942,264.198 33.561,264.066 33.252,263.797C32.571,263.205 32.499,262.173 33.091,261.492L39.447,254.181L39.447,246.793L43.27,246.793Z" style="fill:rgb(24,28,27);"/>
        </g>
        <g transform="matrix(0.317525,0,0,0.317525,-275.13,207.717)">
            <rect x="158.31" y="171.381" width="15.393" height="16.934" style="fill:white;"/>
        </g>
        <g transform="matrix(1,0,0,1,-280,0)">
            <path d="M83.243,282.416L16.757,282.416L20.351,275.782L21.405,275.782C22.12,276.392 23.002,277.081 23.928,277.676C24.464,278.019 25.013,278.332 25.587,278.577C26.163,278.819 26.757,279.017 27.49,279.025C29.369,278.978 30.739,278.075 32.058,277.407C33.36,276.694 34.545,276.179 35.348,276.203C35.753,276.207 36.028,276.287 36.386,276.46C36.918,276.712 37.575,277.265 38.525,277.868C39.467,278.463 40.791,279.037 42.429,279.025C43.557,279.029 44.544,278.785 45.344,278.424C46.547,277.875 47.308,277.176 47.934,276.783C48.576,276.383 48.987,276.18 49.897,276.164C50.533,276.168 50.927,276.278 51.319,276.453C51.902,276.705 52.498,277.222 53.429,277.837C54.345,278.447 55.684,279.042 57.363,279.025C58.493,279.028 59.479,278.785 60.279,278.424C61.484,277.875 62.246,277.176 62.872,276.783C63.515,276.382 63.926,276.179 64.834,276.163C65.449,276.156 66.176,276.415 66.728,276.72C67.003,276.869 67.233,277.022 67.383,277.131C67.46,277.185 67.516,277.229 67.549,277.255C67.566,277.268 67.576,277.278 67.582,277.282L67.696,277.373C68.629,278.066 70.12,279.025 72.217,279.025L72.303,279.025C74.203,278.99 75.824,278.111 77.222,277.237C77.914,276.791 78.531,276.328 79.036,275.912C79.089,275.868 79.14,275.825 79.191,275.782L79.661,275.782L83.243,282.416Z" style="fill:rgb(0,164,205);"/>
        </g>
    </g>
</svg>
