<?xml version="1.0" encoding="UTF-8" standalone="no"?>
<!DOCTYPE svg PUBLIC "-//W3C//DTD SVG 1.1//EN" "http://www.w3.org/Graphics/SVG/1.1/DTD/svg11.dtd">
<svg width="100" height="100" viewBox="0 0 100 100" xmlns="http://www.w3.org/2000/svg" style="fill-rule:evenodd;clip-rule:evenodd;stroke-linejoin:round;stroke-miterlimit:2;">
    <g transform="matrix(1,0,0,1,280,-100)">
        <g transform="matrix(0.72676,0,0,0.72676,-332.74,-488.016)">
            <path d="M141.844,816.615C146.035,816.831 149.955,819.203 152.094,822.863C170.058,855.537 187.65,888.187 205.039,921.027C205.492,921.94 205.514,922.057 205.68,922.545C205.997,923.472 206.195,924.44 206.274,925.416C206.813,932.107 201.418,938.73 194.33,938.964C158.923,939.24 123.713,939.24 88.428,938.964C87.411,938.93 87.295,938.894 86.786,938.809C85.879,938.657 84.991,938.397 84.144,938.039C77.898,935.4 74.568,927.379 77.72,921.026C95.175,888.082 112.78,855.392 130.664,822.864C131.457,821.505 131.846,821.059 132.606,820.28C135.032,817.793 137.916,816.479 141.844,816.615Z" style="fill:white;"/>
        </g>
        <g transform="matrix(0.72676,0,0,0.72676,-332.74,-488.016)">
            <path d="M141.496,822.11C143.869,822.172 146.124,823.515 147.305,825.577C165.189,858.083 182.787,890.747 200.141,923.539C202.215,927.628 199.244,933.339 194.217,933.461C158.993,933.745 123.766,933.745 88.541,933.461C83.947,933.35 80.363,927.985 82.618,923.538C99.98,890.751 117.57,858.083 135.454,825.577C136.689,823.422 138.843,822.09 141.496,822.11Z" style="fill:rgb(227,0,15);"/>
        </g>
        <g transform="matrix(0.72676,0,0,0.72676,-332.74,-488.016)">
            <path d="M140.254,831.423C140.477,831.009 140.909,830.751 141.379,830.751C141.849,830.751 142.282,831.009 142.505,831.423C149.427,844.266 186.15,912.404 192.749,924.648C192.963,925.044 192.952,925.523 192.721,925.91C192.491,926.296 192.074,926.533 191.624,926.533C178.099,926.533 104.66,926.533 91.135,926.533C90.685,926.533 90.268,926.296 90.037,925.91C89.807,925.523 89.796,925.044 90.01,924.648C96.608,912.404 133.332,844.266 140.254,831.423Z" style="fill:white;"/>
        </g>
        <g transform="matrix(1,0,0,1,-280,0)">
            <path d="M43.185,141.768L43.185,144.767L48.49,138.668C48.799,138.309 49.254,138.103 49.727,138.105C50.2,138.106 50.653,138.312 50.963,138.671L66.313,156.417L66.314,156.419C66.907,157.102 66.83,158.136 66.147,158.727C65.463,159.317 64.429,159.243 63.839,158.559L62.436,156.938L62.436,165.595C61.956,165.635 61.719,165.762 61.297,166.023C60.826,166.316 60.206,166.89 59.193,167.357C58.519,167.662 57.684,167.868 56.743,167.864C56.72,167.864 56.699,167.865 56.676,167.865C55.305,167.865 54.18,167.361 53.44,166.864C52.673,166.353 52.213,165.956 51.807,165.782C51.532,165.662 51.275,165.585 50.815,165.582C50.164,165.599 49.924,165.723 49.436,166.023C48.965,166.316 48.346,166.89 47.334,167.356C46.661,167.661 45.826,167.868 44.885,167.864C43.514,167.875 42.387,167.385 41.611,166.891C40.83,166.392 40.314,165.958 39.94,165.785C39.689,165.665 39.53,165.619 39.263,165.614C38.749,165.591 37.868,165.953 36.862,166.505L36.862,157.031L35.457,158.646C35.132,159.018 34.677,159.208 34.22,159.208C33.839,159.208 33.457,159.077 33.147,158.807C32.465,158.214 32.392,157.18 32.986,156.498L39.356,149.172L39.356,141.768L43.185,141.768Z" style="fill:rgb(24,28,27);"/>
        </g>
        <g transform="matrix(1,0,0,1,-280,0)">
            <path d="M20.561,175.277C20.684,175.391 20.817,175.511 20.961,175.639C21.725,176.309 22.735,177.121 23.802,177.808C24.34,178.151 24.891,178.465 25.464,178.711C26.042,178.952 26.638,179.151 27.371,179.159C29.254,179.112 30.628,178.207 31.949,177.538C33.253,176.825 34.441,176.308 35.246,176.331C35.652,176.336 35.927,176.416 36.287,176.589C36.819,176.841 37.478,177.396 38.43,177.999C39.374,178.596 40.7,179.17 42.342,179.159C43.473,179.162 44.461,178.919 45.263,178.556C46.468,178.006 47.231,177.306 47.859,176.912C48.503,176.51 48.914,176.308 49.826,176.291C50.463,176.295 50.857,176.406 51.252,176.581C51.835,176.834 52.433,177.351 53.365,177.968C54.283,178.58 55.626,179.175 57.308,179.159C58.44,179.162 59.428,178.918 60.229,178.557C61.437,178.006 62.2,177.306 62.829,176.912C63.472,176.51 63.885,176.308 64.794,176.291C65.41,176.282 66.138,176.543 66.691,176.849C66.968,176.999 67.197,177.152 67.35,177.261C67.425,177.315 67.482,177.358 67.515,177.385C67.531,177.398 67.543,177.408 67.548,177.412L67.548,177.411L67.663,177.503C68.599,178.197 70.093,179.159 72.193,179.159L72.28,179.159C74.183,179.124 75.807,178.242 77.208,177.366C77.902,176.92 78.521,176.456 79.026,176.039C79.2,175.894 79.358,175.759 79.503,175.63L83.243,182.557L16.617,182.557L20.561,175.277Z" style="fill:rgb(0,164,205);"/>
        </g>
        <g transform="matrix(1,0,0,1,-280,0)">
            <path d="M24.596,167.83C24.661,167.945 24.74,168.056 24.832,168.159C25.208,168.583 25.9,169.319 26.819,170.011C27.746,170.682 28.897,171.415 30.497,171.446C32.367,171.393 33.637,170.524 34.837,169.921C36.019,169.267 37.056,168.837 37.656,168.864C37.962,168.868 38.146,168.921 38.434,169.059C38.862,169.257 39.455,169.757 40.353,170.33C41.241,170.896 42.535,171.459 44.111,171.446C45.19,171.451 46.151,171.214 46.921,170.863C48.083,170.328 48.793,169.669 49.334,169.333C49.892,168.989 50.169,168.846 50.917,168.827C51.444,168.831 51.74,168.918 52.055,169.058C52.522,169.257 53.05,169.711 53.929,170.298C54.78,170.87 56.07,171.446 57.644,171.446C57.67,171.446 57.695,171.446 57.721,171.446C58.8,171.451 59.761,171.215 60.532,170.863C61.695,170.329 62.407,169.67 62.948,169.333C63.506,168.988 63.782,168.846 64.529,168.827C64.993,168.818 65.603,169.028 66.073,169.29C66.307,169.418 66.504,169.549 66.631,169.641C66.694,169.687 66.742,169.723 66.768,169.745C66.778,169.753 66.784,169.758 66.79,169.761C66.79,169.763 66.79,169.763 66.792,169.763L66.914,169.861C67.365,170.185 67.929,170.587 68.672,170.91C69.412,171.236 70.322,171.45 71.335,171.446C73.042,171.452 74.406,170.704 75.299,169.954C75.582,169.718 75.835,169.475 76.055,169.246L77.762,172.406C77.688,172.466 77.618,172.533 77.552,172.607L77.551,172.606C77.492,172.678 77.179,172.983 76.778,173.31C76.169,173.815 75.303,174.439 74.443,174.9C73.586,175.371 72.717,175.639 72.28,175.624C71.119,175.597 70.68,175.293 69.768,174.661C69.579,174.507 69.092,174.13 68.378,173.742C67.506,173.275 66.285,172.763 64.794,172.756C63.692,172.751 62.722,173.002 61.941,173.366C60.766,173.922 60.03,174.605 59.397,174.994C58.753,175.388 58.296,175.608 57.309,175.624C56.672,175.62 56.277,175.508 55.885,175.333C55.299,175.081 54.703,174.563 53.77,173.945C52.852,173.336 51.509,172.74 49.826,172.756C48.725,172.751 47.752,173.001 46.972,173.366C45.796,173.922 45.059,174.606 44.428,174.995C43.784,175.388 43.329,175.607 42.343,175.624C41.186,175.607 40.609,175.226 39.611,174.534C39.124,174.194 38.573,173.778 37.858,173.422C37.146,173.066 36.249,172.792 35.246,172.796C33.231,172.82 31.638,173.716 30.287,174.418C28.955,175.162 27.8,175.671 27.371,175.624C27.371,175.624 27.364,175.624 27.322,175.617C27.16,175.594 26.714,175.426 26.224,175.142C25.478,174.722 24.6,174.076 23.881,173.482C23.168,172.898 22.561,172.313 22.441,172.173C22.401,172.127 22.358,172.083 22.313,172.042L24.596,167.83Z" style="fill:rgb(0,164,205);"/>
        </g>
        <g transform="matrix(1,0,0,1,-280,0)">
            <rect x="55.078" y="157.142" width="4.898" height="5.388" style="fill:white;"/>
        </g>
    </g>
</svg>
