<?xml version="1.0" encoding="UTF-8" standalone="no"?>
<!DOCTYPE svg PUBLIC "-//W3C//DTD SVG 1.1//EN" "http://www.w3.org/Graphics/SVG/1.1/DTD/svg11.dtd">
<svg width="100" height="100" viewBox="0 0 100 100" xmlns="http://www.w3.org/2000/svg" style="fill-rule:evenodd;clip-rule:evenodd;stroke-linejoin:round;stroke-miterlimit:2;">
    <g transform="matrix(1,0,0,1,280,0)">
        <g transform="matrix(0.72676,0,0,0.72676,-332.74,-588.016)">
            <path d="M141.844,816.615C146.039,816.831 149.981,819.247 152.094,822.863C170.058,855.537 187.65,888.186 205.039,921.027C205.492,921.94 205.514,922.057 205.68,922.545C205.997,923.472 206.195,924.44 206.274,925.416C206.813,932.107 201.416,938.731 194.329,938.964C159.148,939.239 123.775,939.24 88.429,938.964C87.409,938.93 87.295,938.894 86.785,938.809C85.878,938.657 84.99,938.397 84.143,938.039C77.898,935.4 74.567,927.38 77.72,921.026C95.175,888.082 112.78,855.392 130.664,822.864C131.457,821.505 131.846,821.059 132.606,820.28C135.029,817.795 137.862,816.477 141.844,816.615Z" style="fill:white;"/>
        </g>
        <g transform="matrix(0.72676,0,0,0.72676,-332.74,-588.016)">
            <path d="M141.496,822.11C143.869,822.172 146.124,823.515 147.305,825.577C165.189,858.083 182.787,890.747 200.141,923.539C202.215,927.628 199.244,933.339 194.217,933.461C158.993,933.745 123.766,933.745 88.541,933.461C83.947,933.35 80.363,927.985 82.618,923.538C99.98,890.751 117.57,858.083 135.454,825.577C136.689,823.422 138.843,822.09 141.496,822.11Z" style="fill:rgb(227,0,15);"/>
        </g>
        <g transform="matrix(0.72676,0,0,0.72676,-332.74,-588.016)">
            <path d="M140.254,831.423C140.477,831.009 140.909,830.751 141.379,830.751C141.849,830.751 142.282,831.009 142.505,831.423C149.427,844.266 186.15,912.404 192.749,924.648C192.963,925.044 192.952,925.523 192.721,925.91C192.491,926.296 192.074,926.533 191.624,926.533C178.099,926.533 104.66,926.533 91.135,926.533C90.685,926.533 90.268,926.296 90.037,925.91C89.807,925.523 89.796,925.044 90.01,924.648C96.608,912.404 133.332,844.266 140.254,831.423Z" style="fill:white;"/>
        </g>
        <g transform="matrix(1,0,0,1,-280,0)">
            <path d="M43.096,39.883L43.096,43.01L48.412,36.649C48.723,36.276 49.177,36.061 49.651,36.062C50.127,36.063 50.579,36.279 50.891,36.652L66.275,55.157L66.277,55.158C66.869,55.87 66.793,56.948 66.108,57.565C65.422,58.182 64.385,58.103 63.794,57.39L62.387,55.699L62.387,58.465C61.907,58.507 61.67,58.64 61.248,58.912C60.912,59.129 60.5,59.496 59.924,59.864L59.924,55.912L55.014,55.912L55.014,60.59C54.357,60.389 53.801,60.088 53.373,59.789C52.605,59.255 52.143,58.842 51.737,58.661C51.462,58.534 51.202,58.456 50.743,58.452C50.089,58.469 49.848,58.6 49.36,58.912C48.889,59.216 48.269,59.816 47.255,60.302C46.581,60.62 45.743,60.836 44.8,60.832C43.426,60.843 42.294,60.332 41.519,59.817C40.738,59.296 40.218,58.843 39.844,58.663C39.592,58.537 39.433,58.49 39.165,58.485C38.651,58.461 37.765,58.839 36.757,59.416L36.757,55.796L35.348,57.481C35.024,57.869 34.568,58.068 34.109,58.068C33.727,58.068 33.344,57.93 33.034,57.649C32.35,57.031 32.278,55.953 32.872,55.241L39.256,47.602L39.256,39.883L43.096,39.883Z" style="fill:rgb(227,0,15);"/>
        </g>
        <g transform="matrix(1,0,0,1,-280,0)">
            <path d="M27.928,60.406C27.941,60.422 27.954,60.438 27.967,60.454C28.296,60.839 28.899,61.507 29.703,62.136C30.511,62.745 31.516,63.411 32.913,63.439C34.546,63.391 35.655,62.602 36.704,62.054C37.736,61.461 38.641,61.07 39.165,61.093C39.432,61.098 39.592,61.145 39.844,61.271C40.217,61.452 40.736,61.905 41.519,62.426C42.295,62.94 43.425,63.451 44.8,63.439C45.743,63.443 46.581,63.229 47.254,62.91C48.269,62.425 48.889,61.825 49.361,61.52C49.848,61.207 50.089,61.078 50.743,61.061C51.204,61.064 51.462,61.143 51.737,61.27C52.144,61.45 52.604,61.864 53.373,62.397C54.116,62.916 55.242,63.44 56.615,63.44C56.638,63.44 56.662,63.44 56.684,63.439C57.626,63.443 58.465,63.229 59.138,62.91C60.153,62.425 60.776,61.826 61.246,61.52C61.734,61.206 61.976,61.078 62.627,61.061C63.034,61.052 63.566,61.244 63.976,61.482C64.179,61.597 64.352,61.716 64.463,61.8C64.519,61.842 64.56,61.875 64.582,61.893C64.591,61.901 64.598,61.907 64.6,61.91C64.602,61.91 64.602,61.91 64.602,61.911L64.711,62C65.104,62.294 65.596,62.659 66.245,62.953C66.892,63.248 67.686,63.443 68.57,63.439C70.06,63.445 71.252,62.766 72.031,62.084C72.191,61.946 72.339,61.805 72.476,61.667L73.963,64.532C73.867,64.636 73.623,64.877 73.322,65.133C72.79,65.591 72.035,66.156 71.284,66.575C70.535,67.004 69.778,67.247 69.395,67.233C68.38,67.209 67.998,66.933 67.2,66.359C67.036,66.219 66.611,65.877 65.988,65.523C65.226,65.099 64.16,64.635 62.859,64.628C61.896,64.624 61.049,64.852 60.367,65.183C59.342,65.687 58.699,66.308 58.147,66.662C57.585,67.019 57.187,67.219 56.323,67.233C55.767,67.229 55.422,67.128 55.08,66.97C54.569,66.74 54.047,66.269 53.233,65.709C52.432,65.155 51.259,64.613 49.79,64.628C48.827,64.624 47.979,64.852 47.298,65.183C46.271,65.687 45.628,66.309 45.077,66.662C44.515,67.019 44.117,67.218 43.256,67.233C42.246,67.217 41.743,66.872 40.871,66.243C40.446,65.934 39.965,65.557 39.34,65.233C38.719,64.909 37.936,64.661 37.059,64.665C35.3,64.686 33.909,65.501 32.729,66.137C31.567,66.813 30.558,67.276 30.184,67.233C30.184,67.233 30.178,67.234 30.141,67.226C30,67.206 29.609,67.053 29.182,66.795C28.531,66.414 27.765,65.827 27.136,65.288C26.611,64.84 26.153,64.393 25.959,64.187L27.928,60.406Z" style="fill:rgb(0,164,205);"/>
        </g>
        <g transform="matrix(1,0,0,1,-280,0)">
            <path d="M20.421,74.821C20.545,74.939 20.678,75.064 20.822,75.197C21.587,75.895 22.598,76.744 23.67,77.459C24.207,77.817 24.759,78.143 25.336,78.4C25.914,78.652 26.511,78.859 27.246,78.867C29.134,78.819 30.51,77.875 31.833,77.177C33.142,76.433 34.331,75.895 35.138,75.919C35.546,75.924 35.821,76.008 36.181,76.188C36.715,76.451 37.375,77.029 38.329,77.658C39.275,78.281 40.605,78.88 42.249,78.868C43.383,78.872 44.374,78.618 45.178,78.239C46.386,77.665 47.151,76.935 47.778,76.525C48.424,76.106 48.838,75.895 49.751,75.877C50.39,75.881 50.784,75.997 51.179,76.179C51.765,76.444 52.363,76.983 53.299,77.627C54.218,78.264 55.564,78.886 57.25,78.868C58.384,78.872 59.374,78.618 60.178,78.24C61.388,77.666 62.152,76.936 62.782,76.525C63.427,76.107 63.84,75.895 64.752,75.878C65.369,75.87 66.1,76.141 66.654,76.459C66.93,76.616 67.161,76.775 67.313,76.889C67.39,76.946 67.446,76.991 67.479,77.02C67.496,77.033 67.506,77.042 67.512,77.047L67.513,77.047L67.627,77.142C68.565,77.866 70.063,78.869 72.167,78.869C72.196,78.869 72.225,78.869 72.254,78.868C74.163,78.832 75.79,77.913 77.194,77C77.888,76.535 78.509,76.051 79.016,75.616C79.19,75.465 79.349,75.324 79.494,75.189L83.243,82.412L16.468,82.412L20.421,74.821Z" style="fill:rgb(0,164,205);"/>
        </g>
        <g transform="matrix(1,0,0,1,-280,0)">
            <path d="M24.465,67.057C24.53,67.177 24.609,67.292 24.701,67.4C25.078,67.842 25.771,68.609 26.693,69.332C27.622,70.03 28.775,70.794 30.38,70.828C32.252,70.772 33.526,69.866 34.729,69.237C35.912,68.556 36.952,68.106 37.554,68.134C37.861,68.139 38.044,68.194 38.334,68.338C38.762,68.546 39.358,69.066 40.257,69.663C41.147,70.254 42.444,70.841 44.022,70.827C45.103,70.832 46.066,70.585 46.839,70.219C48.003,69.661 48.716,68.974 49.258,68.624C49.818,68.264 50.095,68.116 50.844,68.096C51.372,68.101 51.67,68.191 51.985,68.336C52.454,68.545 52.983,69.018 53.864,69.63C54.716,70.226 56.01,70.828 57.586,70.828C57.613,70.828 57.637,70.828 57.663,70.828C58.745,70.832 59.708,70.586 60.482,70.22C61.646,69.663 62.36,68.976 62.902,68.624C63.461,68.264 63.738,68.116 64.486,68.096C64.953,68.087 65.563,68.307 66.034,68.58C66.269,68.713 66.465,68.849 66.593,68.946C66.658,68.993 66.704,69.031 66.729,69.053C66.74,69.062 66.748,69.068 66.751,69.071C66.752,69.072 66.752,69.073 66.753,69.073L66.755,69.073L66.877,69.175C67.328,69.512 67.895,69.932 68.639,70.269C69.382,70.609 70.293,70.831 71.308,70.828C73.019,70.833 74.386,70.054 75.281,69.271C75.566,69.025 75.819,68.772 76.039,68.533L77.748,71.825C77.674,71.888 77.603,71.958 77.538,72.035L77.537,72.035C77.477,72.109 77.164,72.428 76.762,72.769C76.15,73.296 75.284,73.946 74.421,74.426C73.564,74.918 72.691,75.198 72.254,75.181C71.089,75.154 70.649,74.837 69.737,74.177C69.548,74.016 69.058,73.624 68.342,73.218C67.47,72.732 66.246,72.198 64.752,72.191C63.646,72.186 62.674,72.448 61.892,72.827C60.714,73.407 59.975,74.12 59.342,74.525C58.696,74.936 58.24,75.165 57.25,75.181C56.611,75.177 56.215,75.061 55.822,74.879C55.236,74.615 54.637,74.075 53.703,73.431C52.782,72.794 51.436,72.173 49.751,72.191C48.645,72.186 47.672,72.447 46.89,72.827C45.712,73.407 44.972,74.12 44.34,74.525C43.695,74.936 43.239,75.163 42.249,75.181C41.091,75.163 40.514,74.767 39.512,74.045C39.025,73.691 38.472,73.257 37.755,72.886C37.044,72.513 36.144,72.228 35.138,72.233C33.119,72.257 31.521,73.194 30.169,73.924C28.833,74.699 27.676,75.23 27.246,75.181C27.246,75.181 27.238,75.182 27.196,75.174C27.035,75.15 26.586,74.976 26.096,74.68C25.349,74.242 24.469,73.567 23.749,72.948C23.033,72.339 22.425,71.729 22.305,71.583C22.264,71.536 22.222,71.491 22.178,71.449L24.465,67.057Z" style="fill:rgb(0,164,205);"/>
        </g>
    </g>
</svg>
