<svg xmlns="http://www.w3.org/2000/svg" focusable="false" viewBox="0 0 64 60" height="30" width="32" fill="currentcolor">
  <g>
    <circle cx="20" cy="17.6" r="3.7"></circle>
    <circle cx="10.2" cy="23.5" r="3.7"></circle>
    <circle cx="3.7" cy="33.2" r="3.7"></circle>
    <circle cx="31.7" cy="30.6" r="3.7"></circle>
    <circle cx="43.3" cy="17.6" r="3.7"></circle>
    <circle cx="53.2" cy="23.5" r="3.7"></circle>
    <circle cx="59.7" cy="33.2" r="3.7"></circle>
    <circle cx="31.7" cy="30.6" r="3.7"></circle>
    <path d="M33.1,9.8c.2-.1.3-.3.5-.5l4.6,2.4v-6.8l-4.6,1.5c-.1-.2-.3-.3-.5-.5l1.9-5.9h-6.7l1.9,5.9c-.2.1-.3.3-.5.5l-4.6-1.5v6.8l4.6-2.4c.1.2.3.3.5.5l-2.6,8c-.9,2.8,1.2,5.7,4.1,5.7h0c3,0,5.1-2.9,4.1-5.7l-2.6-8Z"></path>
  </g>
</svg>
